<svg viewBox="0 0 200 200" xmlns="http://www.w3.org/2000/svg">
  <defs>
    <linearGradient id="electrician-gradient" x1="0%" y1="0%" x2="100%" y2="100%">
      <stop offset="0%" style="stop-color:#2563eb;stop-opacity:1" />
      <stop offset="100%" style="stop-color:#1e40af;stop-opacity:1" />
    </linearGradient>
  </defs>
  <circle cx="100" cy="100" r="95" fill="url(#electrician-gradient)" opacity="0.1"/>
  <circle cx="100" cy="100" r="90" fill="none" stroke="url(#electrician-gradient)" stroke-width="2"/>
  <!-- Lightbulb -->
  <path d="M 100 50 Q 115 50 120 65 Q 120 80 100 90 Q 80 80 80 65 Q 85 50 100 50" fill="#FFD700" stroke="#2563eb" stroke-width="2"/>
  <!-- Bulb filament -->
  <path d="M 95 75 Q 100 80 105 75" fill="none" stroke="#FFA500" stroke-width="2" stroke-linecap="round"/>
  <!-- Bolt -->
  <path d="M 75 100 L 90 120 L 85 125 L 100 145 L 110 135 L 105 140 L 90 120" fill="#FFD700" stroke="#2563eb" stroke-width="2"/>
  <!-- Wire connections -->
  <line x1="70" y1="100" x2="85" y2="100" stroke="#2563eb" stroke-width="3" stroke-linecap="round"/>
  <line x1="115" y1="100" x2="130" y2="100" stroke="#2563eb" stroke-width="3" stroke-linecap="round"/>
  <!-- Decorative circles -->
  <circle cx="70" cy="100" r="4" fill="#2563eb"/>
  <circle cx="130" cy="100" r="4" fill="#2563eb"/>
</svg>